<svg xmlns="http://www.w3.org/2000/svg" xmlns:xlink="http://www.w3.org/1999/xlink" viewBox="0 0 474.27 67.67"><defs><style>.cls-1{fill:none;}.cls-2{clip-path:url(#clip-path);}.cls-3{fill:#14394e;}.cls-4{fill:#efc63a;}.cls-5{fill:#d799aa;}.cls-6{fill:#558848;}.cls-7{fill:#d93610;}.cls-8{fill:#9cc;}</style><clipPath id="clip-path" transform="translate(0 0)"><rect class="cls-1" width="474.27" height="67.67"/></clipPath></defs><g id="Ebene_2" data-name="Ebene 2"><g id="Ebene_1-2" data-name="Ebene 1"><g id="B_C_Logo_dunkelblau_02" data-name="B&amp;C_Logo_dunkelblau_02"><g class="cls-2"><g class="cls-2"><path class="cls-3" d="M37,38.59c.34,8.56-7.07,14.14-15.12,14.4S.64,53.31.26,53,0,2.91.26,2.58s11.29-.25,20,0S34.88,8.11,35,16.55s-5.25,10-5.11,10.3A13.89,13.89,0,0,1,37,38.59M8.54,10.36c-.25.32-.34,13,0,13.25a97,97,0,0,0,12.24-.39c2.21-.35,6-1.76,6-6.23s-4.42-6.35-6.48-6.63c-1.9-.26-11.49-.31-11.73,0M28.7,38.15c-.19-5.32-4.23-6.1-6.62-6.8s-13.3-.44-13.54-.25-.34,14,0,14.11,11.58-.07,13.49-.28c2.19-.25,6.85-1.45,6.67-6.78" transform="translate(0 0)"/><path class="cls-4" d="M287.9,26.77c.84-15.83,11-26.6,26.2-26.28S336.43,12.38,336.05,13s-6.57,5.09-7.2,4.27a17.86,17.86,0,0,0-14.47-8.32c-10.44-.3-18.38,9.82-17.8,19.13s7,17.78,17.61,17.61c9.76-.15,14.13-8,14.66-8.09s7.1,3.61,7.2,4.2S327.79,54,314.38,54.14,287,43.33,287.9,26.77" transform="translate(0 0)"/><path class="cls-5" d="M41.31,34.88c0-11.61,9-19.4,19-18.93s18.84,7.55,19,18.93-8.23,18.62-19,18.94-19-7.32-19-18.94m30.25,0c.15-5.86-4.08-11.14-11.24-11.37s-11,5.09-11.23,11.37,5.5,11.47,11.23,11.38S71.4,40.75,71.56,34.88" transform="translate(0 0)"/><path class="cls-5" d="M118.15,30.78c.22,8.9.8,22.14,0,22.11s-7,.22-7.78,0,.19-16.31-.25-21.55-3.85-7.89-7.81-8.12-8.59,4.43-8.79,10.07.49,19.63-.36,19.6-7.19.5-7.77,0-.81-50.24,0-50.41a74.44,74.44,0,0,1,7.77,0c.36.12.47,16.69.36,17.73s4.17-3.89,10.8-4.26,13.61,5.93,13.83,14.83" transform="translate(0 0)"/><path class="cls-6" d="M159.26,30.78c.37,8.81.74,22,0,22.11-1.07.12-6.6,0-7.14,0s-.16-15.94-.64-21.28-3.87-8.5-8.06-8.35a9.69,9.69,0,0,0-9,10.44c.23,6.65.38,19.26-.14,19.23s-7.34-.06-7.77,0-.87-35.81,0-36,7.45-.36,7.77,0-.09,5.08.42,4.35A15.31,15.31,0,0,1,145.43,16c6.13-.19,13.46,6,13.83,14.83" transform="translate(0 0)"/><path class="cls-7" d="M185.1,46.4c7.63-.36,9.66-4.32,10.12-4.43s6,3.34,5.73,4c-1.3,3.53-5.14,7.37-15.77,7.85s-19.6-7.12-19.59-18.94S172.88,16,184.6,16,202.45,24,202.68,35c0,1.25,0,3-.8,3.3-.5.2-27.78-.51-28.15-.06s3.47,8.57,11.37,8.2m9.73-14.54c-1.08-6.19-5.62-8.86-10.3-8.86a10.47,10.47,0,0,0-10.87,8.86Z" transform="translate(0 0)"/><path class="cls-8" d="M259.32,43.24c0-.3,3.65-5.36,4.33-10.33-.1-1.07-5.74-4.73-6.34-4.09s-3.08,8.88-3.46,8.51-8.63-9.13-8.8-9.42S255.13,23.18,256,15.57s-5.25-13.77-12.86-14S228.47,5.33,228,13.5s5.15,11.81,4.79,12.05-9,4.51-9.76,13.51,8.67,15.21,17.43,15a23,23,0,0,0,13.89-5c.18,0,4.15,5.14,4.83,5.18s6.54-3.31,6.7-3.88-6.55-6.83-6.56-7.13M241.88,9.05c3.57.18,5.77,2.24,5.84,6s-7.08,7.47-7.36,7.48-4.49-4.3-4.49-7c0-3.89,2.43-6.63,6-6.45m-1.13,37.07c-5,.46-9.62-3.36-9.47-7.38S237.68,31,238,31.3c.56.6,11.09,11.82,11.11,12.15s-3.38,2.2-8.35,2.67" transform="translate(0 0)"/><path class="cls-6" d="M341,.32c.22-.53,7.63-.31,7.78,0s.49,52.27,0,52.57-7.58.12-7.78,0-.22-52,0-52.57" transform="translate(0 0)"/><path class="cls-5" d="M391.21,17.31c.07.31-8,21.94-13.71,36.82S360.26,68.1,360,67.29s-.44-7,0-7.28,8,.44,9.73-8.2c.09-.45-3.79-8.9-7.81-17.94-3.68-8.28-7.33-16.79-7.25-17,.18-.42,8.16-.31,8.5,0s10.2,25.51,10.78,25.64,8.31-25.22,9.16-25.64,8.07.11,8.14.43" transform="translate(0 0)"/><path class="cls-5" d="M431.1,2.48c.1.48.42,50.32,0,50.41s-7.43.33-7.78,0-.17-4.44,0-5.19-2.9,6-12.6,6.12-17.93-8.53-17.93-18.94S401.64,16,410.72,16s12.21,5.78,12.6,6.05-.28-19.15,0-19.52,7.68-.47,7.78,0m-8.23,32.45c.07-5.34-4.54-11.94-10.92-11.57s-11.63,5.57-11.38,11.52S404.51,46.7,412,46.41s10.85-6.14,10.92-11.48" transform="translate(0 0)"/><path class="cls-7" d="M456.81,46.69c7.2-1,9.18-3.91,9.42-4.5s6.35,3.14,6.28,3.78-5,7.19-15.77,7.85-19.87-8.74-19.59-18.94S443.44,16,456.16,16s18.63,8.83,18.07,19c0,.8,0,3.07-.64,3.19s-27.64-.29-28.3.05,4.32,9.45,11.52,8.49m9.58-14.83c.42.11-1.14-8.78-10.3-8.86s-11.33,8.53-10.87,8.86,20.74-.11,21.17,0" transform="translate(0 0)"/></g></g></g></g></g></svg>