<svg xmlns="http://www.w3.org/2000/svg" xmlns:xlink="http://www.w3.org/1999/xlink" viewBox="0 0 475.64 317.71"><defs><style>.cls-1{fill:none;}.cls-2{clip-path:url(#clip-path);}.cls-3{fill:#dcc4b2;}.cls-4{fill:#7f5e42;}.cls-5{fill:#d93610;}.cls-6{fill:#292929;}</style><clipPath id="clip-path" transform="translate(0 -114.9)"><rect class="cls-1" width="478.09" height="478.09"/></clipPath></defs><g id="Ebene_2" data-name="Ebene 2"><g id="Ebene_1-2" data-name="Ebene 1"><g id="Yogi"><g class="cls-2"><g class="cls-2"><path class="cls-3" d="M362.05,332.05c-22.62.73-34.31,11.5-53.94,15.35-3.12.62-10.17,8.3-11.77,10.21-3.53,4.24-13.18,7.92-26,8.29-9.9.28-11.46,1.33-19.13,4.77-2.14,1.39-.19,3.31,1,9.06s-11.92,7-19.37,12.66c-5.53,4.21,4.82,7.72-8.27,9.47-7.5,1-16.17,6.7-23.28,6.82s-26.17-10.16-23.63-8.75c4.37,2.44-3.86,10.9.88,14.17,1.33.91,7.56,11,2.55,11.89-3.13.57-94.14-24.06-84.15-29.18,9.75-5,77.91-12.42,87.42-30.53,8.93-17,17.53-21.86,31.43-24.65C229.86,338.8,247.9,297,317.05,306c0,0-16.09-7.29-18.14-11.41s-13.38-7.32-18.69-9.65-20.18-11.76-10-12.6,28,2.3,28,2.3,4.88,1.47,6.27,3.72c1.15,1.86,65,10.43,65,10.43s3.14-29.21,37.69-20c25.34,6.71,68.92,63.25,68.41,67.45s-18.71-4.63-22.4-8.38c-2.09-2.12-2.84-4.56-4.68-6.18S421.72,315,409.4,302.06c1.43,7.56-.55,28.48-47.35,30" transform="translate(0 -114.9)"/><path class="cls-4" d="M107.72,344.88s-20.21,36.91-19.4,45.76,12.34,19.85,54.56,27.09c9.26,3.22,11.23,5,14.85,7.78s8.91,5.1,13.89,6.76c5.64,1.88,12.42-4.69,12-7.51s-9.63-11.05-17.27-14.27-10.14-1.07-15.77-7.51-13.95-16.69-27.24-19.1c3.63-2.42,30.15-11.79,28.78-27.92,11.32.34,22.56,3.58,19.88-12.22S138,289,121.34,289c-22.5,0-13.62,55.85-13.62,55.85" transform="translate(0 -114.9)"/><path class="cls-4" d="M195.8,308.29s4.1,32.52-11.6,49.4c9.94,3.37,21.82,9.7,31.15,25.26,5.81,4.44,20.87,8.62,18.4,13.78S217.26,401.94,213,399c-4.65-3.18-6.59-4.38-10.39-7.22-4.4-3.29-38.75-13.06-40.11-22.52-1.28-9-5.91-35.55,4.19-43.4s24.34-20.16,29.11-17.6" transform="translate(0 -114.9)"/><path class="cls-4" d="M130,207c-13.48-33.48-15.16-65.62-.71-76.44,30.85-23.09,121.24,65,124,67.16,6.25,5,19,21.16,21,23.25,8.36,8.65-6.45,11.51-10.51,9.5-7.83-3.88-10.83-9.72-16.23-12.71-5.09-2.81-3.25-6.49-4-7.71-3-4.54-84.6-19.18-76.49-37.89,5.34-12.3,8.64,9.32,16.19,20,14.78,20.95,3.75,46-15.82,50.26C142.08,248,137.54,225.66,130,207" transform="translate(0 -114.9)"/><path class="cls-5" d="M148.3,183.27c9.54,6.1,10.35,26.31,8.12,36.52s-21.51,34.05-58.69,5.74c-19.61,37.81-.83,76.23-.24,83.6.88,10.86-2.26,14.12-2.4,20.58-.3,12.92,12.13,15.76,12.65,15.24-4-40.63,3.33-42.49,9.77-44s22,10,25.31,19.68c3.84,11.12,10.62,26.82,9,35.5,1.6,3.19,23.2-2,26.35-3,2.16-.72,8.58-7.49,12.37-17,3.91-9.77,7.67-19.37,4.16-32.13s-13.86-15.55-11.15-23.31c4.11-11.77-2.55-20.63-1.1-22.49s35.92-63.85-34.17-74.94" transform="translate(0 -114.9)"/><path class="cls-4" d="M151.91,356c-.29,9.61-1.22,13.51.59,18,2.07,5.17,9.76,6.8,11.38,10.2,1.28,2.66,9.54,8.82,14.93,7.24s24.39-12.27,25.72-16.7c1.11-3.69,7.5-14.59-11.09-30.3s-41.26,2.85-41.53,11.52" transform="translate(0 -114.9)"/><path class="cls-4" d="M133.85,245.51C101,240,96.38,225.93,73.8,202.44c-1.35-1.4-19.87-15-23.78-20.22-8.5-11.28-26.76-33.11-28.83-34.5-4.09-2.75-9-12-18.26-20.28-7-6.2,0-13,5.08-12.52,2.72.25,17,7.84,22,11.19,4.53,3,4.4,5.7,5,7.44,1.77,5.33,39.17,20.29,52.66,28.22,8.11,4.77,75.7,13.75,82.47,47.18,2.65,13.14-4.72,41.83-36.3,36.56" transform="translate(0 -114.9)"/><path class="cls-6" d="M237.46,414.22c-8.25-3.5-28.78-10.93-30.19-14.94-2.65-7.54,7.39-22.17,1.44-42.06a29.22,29.22,0,0,0-17.94-18.76c-9.9-3.75-22.16-3.75-31,1.61-2.79,1.69-5.31,5.91-8.12,15.08-1.55,5.05,7.56,8.52,13.74,10.79,4,1.48,5.2-3,9.38.81,4.52,4.07-2.07,10.53-4.17,11.91-7.08,4.67-1,16.1-2.47,20-1.28,3.36-.21,10.72,7.62,13.6s24.88,11,32.1,12.89,13.66-3.61,17.38-2.37c4.1,1.36,6.23-3.22,6.92-3.53,1.43-.65,3.58,1.38,5.47.31s3.08-3.74-.13-5.34" transform="translate(0 -114.9)"/></g></g></g></g></g></svg>